<?xml version="1.0" encoding="UTF-8"?>
<svg id="Layer_1" data-name="Layer 1" xmlns="http://www.w3.org/2000/svg" viewBox="0 0 331.94 95.14">
  <defs>
    <style>
      .cls-1 {
        fill: #231f20;
      }
    </style>
  </defs>
  <path class="cls-1" d="M259.72,50.27V0h-20.14v48.75c6.56.65,13.33,1.15,20.14,1.52Z"/>
  <path class="cls-1" d="M235.76,48.35V0h-20.14v45.44c6.31,1.18,13.08,2.14,20.14,2.91Z"/>
  <path class="cls-1" d="M209.07,44.1c.9.2,1.82.4,2.74.59V0h-20.14v36.04c5.69,2.65,11.47,5.36,17.4,8.06Z"/>
  <path class="cls-1" d="M307.64,51.22V0h-20.14v51.19c6.96.09,13.73.09,20.14.03Z"/>
  <path class="cls-1" d="M187.85,34.27V0h-20.14v25.28c6.7,2.82,13.37,5.85,20.14,8.98Z"/>
  <path class="cls-1" d="M283.68,51.13V0h-20.14v50.47c6.75.33,13.51.53,20.14.66Z"/>
  <path class="cls-1" d="M44.1,7.95V0h-20.14v7.95h20.14Z"/>
  <path class="cls-1" d="M68.06,7.95V0h-20.14v7.95h20.14Z"/>
  <path class="cls-1" d="M20.14,7.95V0H0v7.95h20.14Z"/>
  <path class="cls-1" d="M90.18,7.95c.62,0,1.22.02,1.83.02V0h-20.14v7.95h18.31Z"/>
  <path class="cls-1" d="M139.93,15.22V0h-20.14v10.49c6.95,1.21,13.63,2.81,20.14,4.72Z"/>
  <path class="cls-1" d="M115.97,9.87V0h-20.14v8.05c7,.22,13.69.85,20.14,1.82Z"/>
  <path class="cls-1" d="M163.89,23.7V0h-20.14v16.38c6.84,2.15,13.52,4.62,20.14,7.32Z"/>
</svg>