<?xml version="1.0" encoding="UTF-8"?>
<svg xmlns="http://www.w3.org/2000/svg" viewBox="0 0 331.94 95.14">
  <defs>
    <linearGradient id="speed-grad" x1="0" y1="47.57" x2="331.94" y2="47.57" gradientUnits="userSpaceOnUse">
      <stop offset="0" stop-color="#fff33b"/>
      <stop offset=".04" stop-color="#fee62d"/>
      <stop offset=".12" stop-color="#fdd51b"/>
      <stop offset=".2" stop-color="#fdca0f"/>
      <stop offset=".28" stop-color="#fdc70c"/>
      <stop offset=".67" stop-color="#f3903f"/>
      <stop offset=".89" stop-color="#ed683c"/>
      <stop offset="1" stop-color="#e93e3a"/>
    </linearGradient>
    <clipPath id="bars">
      <rect x="9.03" y="14.19" width="20.14" height="64.58"/>
      <rect x="32.99" y="14.19" width="20.14" height="64.58"/>
      <rect x="56.94" y="14.19" width="20.14" height="64.58"/>
      <rect x="80.9" y="14.19" width="20.14" height="64.58"/>
      <rect x="104.86" y="14.19" width="20.14" height="64.58"/>
      <rect x="128.82" y="14.19" width="20.14" height="64.58"/>
      <rect x="152.78" y="14.19" width="20.14" height="64.58"/>
      <rect x="176.74" y="14.19" width="20.14" height="64.58"/>
      <rect x="200.69" y="14.19" width="20.14" height="64.58"/>
      <rect x="224.65" y="14.19" width="20.14" height="64.58"/>
      <rect x="248.61" y="14.19" width="20.14" height="64.58"/>
      <rect x="272.57" y="14.19" width="20.14" height="64.58"/>
      <rect x="296.53" y="14.19" width="20.14" height="64.58"/>
    </clipPath>
    <style>
      .outline {
        fill: none;
        stroke: white;
        stroke-width: 4;
      }
    </style>
  </defs>
  <g clip-path="url(#bars)">
    <rect width="331.94" height="95.14" fill="url(#speed-grad)"/>
  </g>
  <g class="outline">
      <rect x="9.03" y="14.19" width="20.14" height="64.58"/>
      <rect x="32.99" y="14.19" width="20.14" height="64.58"/>
      <rect x="56.94" y="14.19" width="20.14" height="64.58"/>
      <rect x="80.9" y="14.19" width="20.14" height="64.58"/>
      <rect x="104.86" y="14.19" width="20.14" height="64.58"/>
      <rect x="128.82" y="14.19" width="20.14" height="64.58"/>
      <rect x="152.78" y="14.19" width="20.14" height="64.58"/>
      <rect x="176.74" y="14.19" width="20.14" height="64.58"/>
      <rect x="200.69" y="14.19" width="20.14" height="64.58"/>
      <rect x="224.65" y="14.19" width="20.14" height="64.58"/>
      <rect x="248.61" y="14.19" width="20.14" height="64.58"/>
      <rect x="272.57" y="14.19" width="20.14" height="64.58"/>
      <rect x="296.53" y="14.19" width="20.14" height="64.58"/>
  </g>
</svg>
